# Blender v2.79 (sub 0) OBJ File: 'espejos.blend'
# www.blender.org
mtllib espejos.mtl
o Cube
v 3.323650 -1.000000 -4.063676
v 3.323650 -1.000000 4.356372
v -5.677066 -1.000000 4.356372
v -5.677065 -1.000000 -4.063676
v 3.323380 0.489836 -4.053962
v 3.323649 1.152421 4.356373
v -5.677066 1.152421 4.356372
v -5.676854 0.581366 -4.071247
v -1.914264 -1.000000 4.356372
v -0.429497 -1.000000 4.356372
v -1.914264 -1.000000 -4.063676
v -0.429497 -1.000000 -4.063676
v -0.429567 0.528003 -4.061169
v -1.914255 0.543102 -4.064021
v -0.429498 1.152421 4.356372
v -1.914265 1.152421 4.356372
v 3.323650 0.195195 -4.063676
v 3.323649 0.195195 4.356372
v -5.677066 0.195195 4.356372
v -5.677065 0.195195 -4.063676
v -0.429497 0.195195 -4.063676
v -1.914264 0.195195 -4.063676
v -0.429498 0.195195 4.356372
v -1.914265 0.195195 4.356372
v -3.214890 -1.000000 -4.063676
v -3.214890 -1.000000 4.356372
v -3.214811 0.556328 -4.066519
v -3.214890 1.152421 4.356372
v -3.214890 0.195195 -4.063676
v -3.214890 0.220231 4.356372
v -2.496006 -1.000000 -4.063676
v -2.496006 -1.000000 4.356372
v -2.495965 0.549017 -4.065138
v -2.496006 1.152421 4.356372
v -2.496006 0.195195 -4.063676
v -2.496006 0.220231 4.356372
v -5.277184 -1.000000 -4.063676
v -5.277184 -1.000000 4.356372
v -5.276994 0.577300 -4.070479
v -5.277185 1.152421 4.356372
v -5.277184 0.195195 -4.063676
v -5.277184 0.195195 4.356372
v -3.727133 -1.000000 -4.063676
v -3.727133 -1.000000 4.356372
v -3.727026 0.561537 -4.067502
v -3.727133 1.152421 4.356372
v -3.727133 0.195195 -4.063676
v -3.727133 0.195195 4.356372
v -0.429497 -0.755400 4.356372
v -1.914264 -0.755400 4.356372
v 3.323650 -0.755400 -4.063676
v 3.323650 -0.755400 4.356372
v -5.677066 -0.755400 4.356372
v -5.677065 -0.755400 -4.063676
v -0.429497 -0.755400 -4.063676
v -1.914264 -0.755400 -4.063676
v -3.214890 -0.755400 4.356372
v -3.214890 -0.755400 -4.063676
v -2.496006 -0.755400 -4.063676
v -2.496006 -0.755400 4.356372
v -5.277184 -0.755400 4.356372
v -5.277184 -0.755400 -4.063676
v -3.727133 -0.755400 -4.063676
v -3.727133 -0.755400 4.356372
v 3.165775 -1.000000 4.356372
v 3.165775 -1.000000 -4.063676
v 3.165774 1.152421 4.356373
v 3.165514 0.491442 -4.054265
v 3.165775 0.195195 4.356372
v 3.165775 0.195195 -4.063676
v 3.165775 -0.755400 4.356372
v 3.165775 -0.755400 -4.063676
v -5.277184 -1.000000 -4.063676
v -5.277184 -1.000000 4.356372
v -5.276994 0.577300 -4.070479
v -5.277185 1.152421 4.356372
v -5.277184 0.195195 -4.063676
v -5.277184 0.195195 4.356372
v -5.277184 -0.755400 -4.063676
v -5.277184 -0.755400 4.356372
v -5.502860 -1.000000 -4.063676
v -5.502860 -1.000000 4.356372
v -5.502658 0.579595 -4.070913
v -5.502861 1.152421 4.356372
v -5.502860 0.195195 -4.063676
v -5.502860 0.195195 4.356372
v -5.502860 -0.755400 4.356372
v -5.502860 -0.755400 -4.063676
v 3.323650 -1.000000 -3.913159
v -5.677065 -1.000000 -3.913159
v 3.323384 0.501681 -3.903618
v -5.676858 0.591574 -3.920595
v -0.429497 -1.000000 -3.913159
v -1.914264 -1.000000 -3.913159
v -5.677065 0.195195 -3.913159
v 3.323650 0.195195 -3.913159
v -3.214890 -1.000000 -3.913159
v -2.496006 -1.000000 -3.913159
v -5.277184 -1.000000 -3.913159
v -3.727133 -1.000000 -3.913159
v 3.323650 -0.755400 -3.913159
v -5.677065 -0.755400 -3.913159
v 3.334388 -1.000000 -3.913159
v -5.513036 -1.000000 -3.913159
v -5.502860 -1.000000 -3.913159
v -0.439813 -1.000000 4.236979
v -1.914264 -1.000000 4.236979
v -3.214890 -1.000000 4.236979
v -2.496006 -1.000000 4.236979
v -5.277184 -1.000000 4.236979
v -3.727133 -1.000000 4.236979
v 3.324072 -1.000000 4.236979
v -5.513036 -1.000000 4.236979
v 3.323647 1.149704 4.321878
v 3.323649 0.195195 4.321838
v 3.323650 -1.000000 0.221607
v 3.323516 0.825692 0.209130
v 3.323649 0.195195 0.204340
v 3.323649 0.195195 2.263089
v 3.323649 0.195195 1.233714
v 3.323650 0.195195 -1.854410
v 3.323450 0.663687 -1.847244
v -2.496006 -1.000000 4.356372
v -0.439813 -1.000000 4.236979
v -1.914264 -1.000000 4.236979
v -2.496006 -1.000000 4.236979
v 3.324072 -1.000000 4.236979
v -2.496006 1.130575 4.356372
v -2.496006 1.130575 4.236979
v -0.439813 1.130575 4.236979
v -1.914264 1.130575 4.236979
v -2.496006 1.130575 4.236979
v 3.324072 1.130575 4.236979
v -3.214890 1.133621 4.356372
v -3.214890 1.133621 4.236979
v -5.277184 1.133621 4.236979
v -3.727133 1.133621 4.236979
v -5.513036 1.133621 4.236979
v -5.277184 0.200544 4.236979
v -5.513036 0.200544 4.236979
v -3.727133 0.200544 4.236979
v -3.214890 0.200544 4.356372
v -3.214890 0.225580 4.236979
v -0.439813 0.256103 4.236979
v -1.914264 0.256103 4.236979
v 3.324072 0.256103 4.236979
v -2.496006 0.281138 4.236979
vt 0.999921 0.219170
vt 0.000079 0.219170
vt 0.000079 0.000079
vt 0.999921 0.000079
vt 0.999921 0.282012
vt 0.000079 0.282011
vt 0.999921 0.441570
vt 0.000079 0.441569
vt 0.000079 0.370203
vt 0.999921 0.370203
vt 0.999921 0.623718
vt 0.000079 0.622452
vt 0.999932 0.461553
vt 0.000652 0.461553
vt 0.000068 0.000068
vt 0.999348 0.000068
vt 0.981583 0.232647
vt 0.981583 0.275334
vt 0.563624 0.275335
vt 0.563624 0.232647
vt 0.981182 0.170549
vt 0.982064 0.099951
vt 0.999938 0.101769
vt 0.999040 0.170549
vt 0.391015 0.275336
vt 0.391015 0.232649
vt 0.893541 0.390489
vt 0.893537 0.347802
vt 0.913789 0.347798
vt 0.913793 0.390485
vt 0.893537 0.623483
vt 0.893555 0.556386
vt 0.913807 0.556382
vt 0.913788 0.623789
vt 0.563614 0.008667
vt 0.563623 0.066750
vt 0.391014 0.066752
vt 0.391014 0.006036
vt 0.981183 0.339853
vt 0.999040 0.339853
vt 0.981552 0.015025
vt 0.981583 0.066751
vt 0.323389 0.005004
vt 0.323384 0.066753
vt 0.239812 0.066754
vt 0.239821 0.003728
vt 0.323386 0.232650
vt 0.323386 0.275337
vt 0.239813 0.275339
vt 0.239813 0.232651
vt 0.180264 0.275340
vt 0.180263 0.232652
vt 0.180262 0.066755
vt 0.180274 0.002818
vt 0.982248 0.033141
vt 0.981721 0.076296
vt 0.979681 0.243984
vt 0.737754 0.237396
vt 0.495808 0.231352
vt 0.374571 0.229599
vt 0.252500 0.227426
vt 0.004409 0.225034
vt 0.000751 0.225050
vt 0.000063 0.082358
vt 0.000109 0.000063
vt 0.496272 0.019746
vt 0.981183 0.383416
vt 0.999039 0.383416
vt 0.999936 0.066751
vt 0.999936 0.232647
vt 0.999905 0.015303
vt 0.999936 0.275334
vt 0.000065 0.232655
vt 0.000064 0.066759
vt 0.000065 0.275343
vt 0.000085 0.000064
vt 0.867319 0.556391
vt 0.867306 0.390494
vt 0.867303 0.623086
vt 0.867302 0.347807
vt 0.000062 0.383422
vt 0.000062 0.339857
vt 0.999937 0.033628
vt 0.999409 0.076782
vt 0.997368 0.244469
vt 0.000062 0.170550
vt 0.000062 0.000062
vt 0.995596 0.296411
vt 0.977904 0.298017
vt 0.004173 0.395710
vt 0.000064 0.396158
vt 0.735937 0.319998
vt 0.494128 0.342221
vt 0.020329 0.629679
vt 0.020329 0.809665
vt 0.000077 0.809665
vt 0.000077 0.629679
vt 0.563621 0.629649
vt 0.563621 0.809634
vt 0.391017 0.809634
vt 0.391017 0.629648
vt 0.981570 0.629649
vt 0.981570 0.809634
vt 0.981570 0.450910
vt 0.563621 0.450910
vt 0.020329 0.450940
vt 0.000077 0.450940
vt 0.391017 0.450910
vt 0.323389 0.629649
vt 0.323389 0.809634
vt 0.239819 0.809634
vt 0.239819 0.629649
vt 0.323389 0.450910
vt 0.130643 0.468987
vt 0.130607 0.639776
vt 0.044518 0.639728
vt 0.044554 0.468939
vt 0.130570 0.811757
vt 0.044481 0.811709
vt 0.180271 0.809634
vt 0.180271 0.629649
vt 0.239819 0.450910
vt 0.180271 0.450910
vt 0.239819 0.404918
vt 0.180271 0.404918
vt 0.130653 0.425041
vt 0.044563 0.424993
vt 0.391017 0.404918
vt 0.323389 0.404918
vt 0.563621 0.404918
vt 0.020329 0.404949
vt 0.000077 0.404949
vt 0.981570 0.404918
vt 0.999923 0.404918
vt 0.999923 0.450910
vt 0.999923 0.629649
vt 0.999923 0.809634
vt 0.000077 0.450910
vt 0.000077 0.404918
vt 0.000077 0.809634
vt 0.000077 0.629649
vt 0.046564 0.404949
vt 0.046564 0.450940
vt 0.046564 0.629679
vt 0.046564 0.809664
vt 0.000000 0.000000
vt 0.000000 0.000000
vt 0.000000 0.000000
vt 0.000000 0.000000
vt 0.000000 0.000000
vt 0.000000 0.000000
vt 0.000000 0.000000
vt 0.000000 0.000000
vt 0.000000 0.000000
vt 0.000000 0.000000
vt 0.000000 0.000000
vt 0.000000 0.000000
vt 0.000000 0.000000
vt 0.000000 0.000000
vt 0.000000 0.000000
vt 0.000000 0.000000
vt 0.000000 0.000000
vt 0.000000 0.000000
vt 0.000000 0.000000
vt 0.000000 0.000000
vt 0.000000 0.000000
vt 0.000000 0.000000
vt 0.000000 0.000000
vt 0.000000 0.000000
vt 0.000000 0.000000
vt 0.000000 0.000000
vt 0.000000 0.000000
vt 0.000000 0.000000
vt 0.000000 0.000000
vt 0.000000 0.000000
vt 0.000000 0.000000
vt 0.000000 0.000000
vt 0.000000 0.000000
vt 0.000000 0.000000
vt 0.000000 0.000000
vt 0.000000 0.000000
vt 0.000000 0.000000
vt 0.000000 0.000000
vt 0.000000 0.000000
vt 0.000000 0.000000
vt 0.000000 0.000000
vt 0.000000 0.000000
vt 0.000000 0.000000
vt 0.000000 0.000000
vt 0.000000 0.000000
vt 0.000000 0.000000
vt 0.000000 0.000000
vt 0.000000 0.000000
vt 0.000000 0.000000
vt 0.000000 0.000000
vt 0.000000 0.000000
vt 0.000000 0.000000
vt 0.000000 0.000000
vt 0.000000 0.000000
vt 0.000000 0.000000
vt 0.000000 0.000000
vt 0.000000 0.000000
vt 0.000000 0.000000
vt 0.000000 0.000000
vt 0.000000 0.000000
vt 0.000000 0.000000
vt 0.000000 0.000000
vt 0.000000 0.000000
vt 0.000000 0.000000
vt 0.000000 0.000000
vt 0.000000 0.000000
vt 0.000000 0.000000
vt 0.000000 0.000000
vt 0.000000 0.000000
vt 0.000000 0.000000
vt 0.000000 0.000000
vt 0.000000 0.000000
vt 0.000000 0.000000
vt 0.000000 0.000000
vt 0.000000 0.000000
vt 0.000000 0.000000
vt 0.000000 0.000000
vt 0.000000 0.000000
vt 0.000000 0.000000
vt 0.000000 0.000000
vt 0.000000 0.000000
vt 0.000000 0.000000
vt 0.000000 0.000000
vt 0.000000 0.000000
vt 0.000000 0.000000
vt 0.000000 0.000000
vt 0.000000 0.000000
vt 0.000000 0.000000
vt 0.000000 0.000000
vt 0.000000 0.000000
vt 0.000000 0.000000
vt 0.000000 0.000000
vt 0.000000 0.000000
vt 0.000000 0.000000
vt 0.000000 0.000000
vt 0.000000 0.000000
vt 0.000000 0.000000
vt 0.000000 0.000000
vt 0.000000 0.000000
vn 0.0000 -1.0000 0.0000
vn 0.0000 0.0000 -1.0000
vn -1.0000 0.0005 -0.0000
vn 0.0009 -0.0192 -0.9998
vn 0.0010 0.0032 -1.0000
vn -1.0000 0.0000 0.0000
vn 0.0011 0.0189 -0.9998
vn 0.0009 -0.0060 -1.0000
vn 0.0009 -0.0026 -1.0000
vn 0.0009 -0.0092 -1.0000
vn 1.0000 0.0000 0.0000
vn 0.0011 0.0324 -0.9995
vn 0.0009 -0.0142 -0.9999
vn 0.0009 -0.0183 -0.9998
vn -1.0000 0.0002 -0.0000
vn 1.0000 0.0009 -0.0001
vn 1.0000 0.0002 -0.0000
vn 0.0000 0.0000 1.0000
vn 0.0000 -0.9452 -0.3265
vn 0.0372 -0.9629 -0.2672
vn 0.0000 1.0000 0.0000
vn -0.0002 -0.0007 1.0000
vn 0.0102 0.9973 -0.0731
vn 0.0051 0.9977 -0.0677
vn -1.0000 0.0001 -0.0000
vn -0.0051 -0.9969 0.0784
usemtl Material
s off
f 100/1/1 111/2/1 113/3/1 104/4/1
f 97/5/1 108/6/1 111/2/1 100/1/1
f 94/7/1 107/8/1 109/9/1 98/10/1
f 98/10/1 109/9/1 108/6/1 97/5/1
f 93/11/1 106/12/1 107/8/1 94/7/1
f 103/13/1 112/14/1 106/15/1 93/16/1
usemtl Material_textura-de-fondo-de-pared-de-ladrillo-rojo_1372-81.jpg
f 72/17/2 66/18/2 12/19/2 55/20/2
f 95/21/3 92/22/3 8/23/3 20/24/3
f 55/20/2 12/19/2 11/25/2 56/26/2
f 88/27/2 81/28/2 4/29/2 54/30/2
f 83/31/4 85/32/4 20/33/4 8/34/4
f 13/35/5 21/36/5 22/37/5 14/38/5
f 102/39/6 95/21/6 20/24/6 54/40/6
f 68/41/7 70/42/7 21/36/7 13/35/7
f 33/43/8 35/44/8 29/45/8 27/46/8
f 59/47/2 31/48/2 25/49/2 58/50/2
f 56/26/2 11/25/2 31/48/2 59/47/2
f 14/38/9 22/37/9 35/44/9 33/43/9
f 58/50/2 25/49/2 43/51/2 63/52/2
f 27/46/10 29/45/10 47/53/10 45/54/10
f 29/45/2 58/50/2 63/52/2 47/53/2
f 22/37/2 56/26/2 59/47/2 35/44/2
f 35/44/2 59/47/2 58/50/2 29/45/2
f 89/55/11 101/56/11 96/57/11 121/58/11 118/59/11 120/60/11 119/61/11 115/62/11 18/63/11 52/64/11 2/65/11 116/66/11
f 90/67/6 102/39/6 54/40/6 4/68/6
f 85/32/2 88/27/2 54/30/2 20/33/2
f 21/36/2 55/20/2 56/26/2 22/37/2
f 70/42/2 72/17/2 55/20/2 21/36/2
f 17/69/2 51/70/2 72/17/2 70/42/2
f 5/71/12 17/69/12 70/42/12 68/41/12
f 51/70/2 1/72/2 66/18/2 72/17/2
f 47/53/2 63/52/2 79/73/2 77/74/2
f 63/52/2 43/51/2 73/75/2 79/73/2
f 45/54/13 47/53/13 77/74/13 75/76/13
f 41/77/2 62/78/2 88/27/2 85/32/2
f 39/79/14 41/77/14 85/32/14 83/31/14
f 62/78/2 37/80/2 81/28/2 88/27/2
f 3/81/6 53/82/6 102/39/6 90/67/6
f 1/83/11 51/84/11 101/56/11 89/55/11
f 51/84/11 17/85/11 96/57/11 101/56/11
f 53/82/6 19/86/6 95/21/6 102/39/6
f 19/86/15 7/87/15 92/22/15 95/21/15
f 17/85/16 5/88/16 91/89/16 96/57/16
f 114/90/17 6/91/17 18/63/17 115/62/17 119/61/17 120/60/17 118/59/17 121/58/17 96/57/17 91/89/17 122/92/17 117/93/17
usemtl Material_frn.jpg
f 86/94/18 84/95/18 7/96/18 19/97/18
f 23/98/18 15/99/18 16/100/18 24/101/18
f 69/102/18 67/103/18 15/99/18 23/98/18
f 71/104/18 69/102/18 23/98/18 49/105/18
f 87/106/18 86/94/18 19/97/18 53/107/18
f 50/108/18 49/105/18 23/98/18 24/101/18
f 36/109/18 34/110/18 28/111/18 30/112/18
f 24/101/18 16/100/18 34/110/18 36/109/18
f 50/108/18 24/101/18 36/109/18 60/113/18
f 80/114/18 78/115/18 42/116/18 61/117/18
f 78/115/18 76/118/18 40/119/18 42/116/18
f 30/112/18 28/111/18 46/120/18 48/121/18
f 57/122/18 30/112/18 48/121/18 64/123/18
f 26/124/18 57/122/18 64/123/18 44/125/18
f 74/126/18 80/114/18 61/117/18 38/127/18
f 9/128/18 50/108/18 60/113/18 32/129/18
f 9/128/18 10/130/18 49/105/18 50/108/18
f 82/131/18 87/106/18 53/107/18 3/132/18
f 65/133/18 71/104/18 49/105/18 10/130/18
f 2/134/18 52/135/18 71/104/18 65/133/18
f 52/135/18 18/136/18 69/102/18 71/104/18
f 18/136/18 6/137/18 67/103/18 69/102/18
f 44/125/18 64/123/18 80/138/18 74/139/18
f 48/121/18 46/120/18 76/140/18 78/141/18
f 64/123/18 48/121/18 78/141/18 80/138/18
f 38/142/18 61/143/18 87/106/18 82/131/18
f 61/143/18 42/144/18 86/94/18 87/106/18
f 42/144/18 40/145/18 84/95/18 86/94/18
f 15/99/19 67/103/19 84/95/19 40/145/19 76/118/19 46/120/19 28/111/19 34/110/19 16/100/19
f 36/109/20 30/112/20 143/146/20 147/147/20
usemtl Material_NONE
f 105/148/1 82/149/1 3/150/1 90/151/1
f 109/152/18 32/153/18 123/154/18 126/155/18
f 112/156/18 106/157/18 124/158/18 127/159/18
f 109/152/1 32/153/1 26/160/1 108/161/1
f 107/162/1 9/163/1 32/153/1 109/152/1
f 75/164/18 77/165/18 41/166/18 39/167/18
f 79/168/18 73/169/18 37/170/18 62/171/18
f 113/172/21 74/173/21 38/174/21 110/175/21
f 108/161/1 26/160/1 44/176/1 111/177/1
f 77/165/18 79/168/18 62/171/18 41/166/18
f 89/178/21 116/179/21 2/180/21 65/181/21 112/156/21 103/182/21
f 111/177/1 44/176/1 74/173/1 113/172/1
f 99/183/1 110/175/1 38/174/1 82/149/1 105/148/1
f 37/170/1 99/183/1 105/148/1 81/184/1
f 43/185/1 100/186/1 104/187/1 73/169/1
f 1/188/1 89/178/1 103/182/1 66/189/1
f 25/190/1 97/191/1 100/186/1 43/185/1
f 73/169/21 104/187/21 99/183/21 37/170/21
f 11/192/1 94/193/1 98/194/1 31/195/1
f 31/195/1 98/194/1 97/191/1 25/190/1
f 12/196/1 93/197/1 94/193/1 11/192/1
f 66/189/1 103/182/1 93/197/1 12/196/1
f 81/184/1 105/148/1 90/151/1 4/198/1
f 105/148/22 99/183/22 104/187/22 100/186/22 97/191/22 98/194/22 94/193/22 93/197/22 103/182/22 89/178/22 101/199/22 96/200/22 91/201/22 92/202/22 95/203/22 102/204/22 90/151/22
f 83/205/23 8/206/23 92/202/23 91/201/23 5/207/23 68/208/23 13/209/23 14/210/23 33/211/23 27/212/23 45/213/23 75/164/23 39/167/23
f 84/214/24 83/205/24 8/206/24 92/202/24 7/215/24
f 85/216/25 88/217/25 81/184/25 105/148/25 82/149/25 87/218/25 86/219/25 84/214/25 83/205/25
f 5/207/26 91/201/26 122/220/26 117/221/26 114/222/26 6/223/26 67/224/26 68/208/26
f 104/187/21 113/172/21 110/175/21 99/183/21
f 112/156/1 65/181/1 10/225/1 9/163/1 107/162/1 106/157/1
f 106/157/18 107/162/18 125/226/18 124/158/18
f 109/152/18 107/162/18 125/226/18 126/155/18
f 32/153/11 109/152/11 129/227/11 128/228/11
f 144/229/2 145/230/2 131/231/2 130/232/2
f 146/233/2 144/229/2 130/232/2 133/234/2
f 147/147/18 145/230/18 131/231/18 132/235/18
f 139/236/2 140/237/2 138/238/2 136/239/2
f 140/237/18 141/240/18 137/241/18 138/238/18
f 142/242/11 143/146/11 135/243/11 134/244/11
f 141/240/18 143/146/18 135/243/18 137/241/18
f 111/177/18 108/161/18 143/146/18 141/240/18
f 26/160/11 108/161/11 143/146/11 142/242/11
f 113/172/18 111/177/18 141/240/18 140/237/18
f 110/175/2 113/172/2 140/237/2 139/236/2
f 126/155/18 125/226/18 145/230/18 147/147/18
f 127/159/2 124/158/2 144/229/2 146/233/2
f 124/158/2 125/226/2 145/230/2 144/229/2
f 143/146/18 147/147/18 132/235/18 135/243/18
l 89 66
