# Blender v2.79 (sub 0) OBJ File: ''
# www.blender.org
mtllib Letrero.mtl
o Cube
v -0.799321 -0.134810 0.107456
v -0.799321 -0.134810 0.289832
v -1.000000 -0.134810 0.289832
v -1.000000 -0.134810 0.107455
v -0.799320 1.865190 0.107456
v -0.799321 1.865190 0.289832
v -1.000000 1.865190 0.289831
v -1.000000 1.865190 0.107456
v 1.372316 -0.134810 0.107462
v 1.372316 -0.134810 0.289838
v 1.372317 1.865190 0.107463
v 1.372316 1.865190 0.289839
v 1.217701 1.865190 0.289839
v 1.217702 1.865190 0.107463
v 1.217702 -0.134810 0.289838
v 1.217702 -0.134810 0.107462
v -0.799320 2.919659 0.107456
v -0.799321 2.919659 0.289832
v -1.000000 2.919659 0.107456
v -1.000000 2.919659 0.289831
v 1.372317 2.919659 0.107463
v 1.372316 2.919659 0.289839
v 1.217701 2.919659 0.289839
v 1.217702 2.919659 0.107463
vt 0.000000 0.000000
vt 0.000000 0.000000
vt 0.000000 0.000000
vt 0.000000 0.000000
vt 0.000000 0.000000
vt 0.000000 0.000000
vt 0.000000 0.000000
vt 0.000000 0.000000
vt 0.000000 0.000000
vt 0.000000 0.000000
vt 0.000000 0.000000
vt 0.521992 0.976312
vt 0.521992 0.000122
vt 0.619942 0.000122
vt 0.619943 0.976312
vt 0.246530 0.001331
vt 0.247111 0.701175
vt 0.114076 0.701175
vt 0.115287 0.002521
vt 0.187945 0.997428
vt 0.146138 0.117537
vt 0.206263 0.017522
vt 0.281555 0.991767
vt 0.077347 0.000048
vt 0.077348 0.999952
vt 0.000048 0.999952
vt 0.000048 0.000048
vt 0.075595 0.129725
vt 0.000122 0.000122
vt 0.077410 0.999878
vt 0.000000 0.000000
vt 0.281799 0.000122
vt 0.357265 0.000122
vt 0.357265 0.514803
vt 0.281798 0.514803
vt 0.000000 0.000000
vt 0.000000 0.000000
vt 0.446282 0.590269
vt 0.357265 0.590270
vt 0.446282 0.514803
vt 0.000000 0.000000
vt 0.000000 0.000000
vt 0.446282 0.000122
vt 0.077444 0.000048
vt 0.154743 0.000048
vt 0.154744 0.527230
vt 0.077444 0.527230
vn 0.0000 -1.0000 0.0000
vn -0.0000 0.0000 1.0000
vn -1.0000 -0.0000 -0.0000
vn 0.0000 0.0000 -1.0000
vn 1.0000 0.0000 0.0000
vn 0.0000 1.0000 0.0000
usemtl Material
s off
f 1/1/1 2/2/1 3/3/1 4/4/1
f 6/5/2 13/6/2 23/7/2 18/8/2
f 7/9/2 6/5/2 18/8/2 20/10/2
f 2/2/2 6/5/2 7/9/2 3/3/2
f 3/3/3 7/9/3 8/11/3 4/4/3
f 5/12/4 1/13/4 4/14/4 8/15/4
f 9/16/5 11/17/5 12/18/5 10/19/5
f 13/20/2 15/21/2 10/22/2 12/23/2
f 16/24/4 14/25/4 11/26/4 9/27/4
f 15/21/1 16/28/1 9/29/1 10/22/1
f 14/30/3 16/28/3 15/21/3 13/20/3
f 1/1/5 5/31/5 6/5/5 2/2/5
f 13/32/2 12/33/2 22/34/2 23/35/2
f 17/36/6 19/37/6 20/10/6 18/8/6
f 24/38/6 23/39/6 22/34/6 21/40/6
f 17/36/6 18/8/6 23/7/6 24/41/6
f 14/42/4 5/31/4 17/36/4 24/41/4
f 12/33/5 11/43/5 21/40/5 22/34/5
f 8/11/3 7/9/3 20/10/3 19/37/3
f 11/44/4 14/45/4 24/46/4 21/47/4
f 5/31/4 8/11/4 19/37/4 17/36/4
