# Blender v2.79 (sub 0) OBJ File: 'puesto.blend'
# www.blender.org
mtllib puesto2.mtl
o Cube
v 0.395176 -1.008821 -1.893140
v 0.395176 -1.008821 2.474593
v -1.604824 -1.008821 2.474593
v -1.604824 -1.008821 -1.893140
v 0.395176 0.991179 -1.893139
v 0.395175 0.991179 2.474594
v -1.604824 0.991179 2.474593
v -1.604824 0.991179 -1.893140
v 0.395176 -1.008821 -1.826630
v -1.604824 -1.008821 -1.826630
v 0.395176 0.991179 -1.826630
v -1.604824 0.991179 -1.826630
v 0.395176 0.744619 -1.893139
v 0.395175 0.744619 2.474594
v -1.604824 0.744619 2.474593
v -1.604824 0.744619 -1.893140
v -1.604824 0.744619 -1.826630
v 0.395176 0.744619 -1.826630
v -1.604824 -0.526386 -1.826630
v 0.395176 -0.526386 -1.826630
v 0.395176 -0.526386 -1.893139
v 0.395176 -0.526386 2.474593
v -1.604824 -0.526386 2.474593
v -1.604824 -0.526386 -1.893140
v 0.395176 -1.008821 2.410241
v 0.395175 0.991179 2.410242
v -1.604824 -1.008821 2.410241
v -1.604824 0.991179 2.410241
v -1.604824 0.744619 2.410241
v 0.395175 0.744619 2.410242
v 0.395176 -0.526386 2.410242
v -1.604824 -0.526386 2.410241
v 0.323342 -1.008821 -1.893140
v 0.323342 -1.008821 2.474593
v 0.323343 0.991179 -1.893139
v 0.323342 0.991179 2.474594
v 0.323343 0.991179 -1.826630
v 0.323342 -1.008821 -1.826630
v 0.323343 0.744619 -1.893139
v 0.323342 0.744619 2.474594
v 0.323342 -0.526386 2.474593
v 0.323342 -0.526386 -1.893139
v 0.323342 0.991179 2.410242
v 0.323342 -1.008821 2.410241
v -1.600640 0.478164 1.229378
v -1.600640 0.546330 1.229378
v -1.600640 0.478164 -0.770622
v -1.600640 0.546330 -0.770622
v -1.372885 0.478164 1.229378
v -1.372885 0.546330 1.229378
v -1.372885 0.478164 -0.770622
v -1.372885 0.546330 -0.770622
v -1.600640 -0.046709 -0.770622
v -1.600640 -0.046709 1.229378
v -1.372885 -0.046709 -0.770622
v -1.372885 -0.046709 1.229378
v -1.372885 0.245461 -0.770622
v -1.372885 0.170480 -0.770622
v -1.600640 0.170480 -0.770622
v -1.600640 0.245461 -0.770622
v -1.600640 0.170480 1.229378
v -1.600640 0.245461 1.229378
v 0.395175 1.363888 2.474594
v 0.395175 1.363888 2.410242
v -1.372885 0.245461 1.229378
v -1.372885 0.170480 1.229378
v 0.395176 1.363888 -1.826630
v 0.323342 1.363888 2.474594
v -1.600640 -0.400591 -0.770622
v -1.600640 -0.400591 1.229378
v -1.372885 -0.400591 -0.770622
v -1.372885 -0.400591 1.229378
v -1.372885 -0.117486 1.229378
v 0.395176 1.363888 -1.893139
v 0.323343 1.363888 -1.893139
v -1.372885 -0.329814 1.229378
v -1.372885 -0.329815 -0.770622
v 0.323342 1.363888 2.410242
v 0.323343 1.363888 -1.826630
v -1.372885 -0.117486 -0.770622
v -1.600640 -0.117486 -0.770622
v -1.600640 -0.329814 -0.770622
v -1.600640 -0.329815 1.229378
v -1.600640 -0.117486 1.229378
v -1.547440 -1.008821 -1.893140
v -1.547440 -1.008821 2.474593
v -1.547440 0.991179 -1.893140
v -1.547440 0.991179 2.474593
v -1.547440 -1.008821 -1.826630
v -1.547440 0.744619 -1.893140
v -1.547440 0.744619 2.474593
v -1.547440 -0.526386 2.474593
v -1.547440 -0.526386 -1.893140
v -1.547440 -1.008821 2.410241
v -1.547440 0.991179 -1.826630
v -1.547440 0.991179 2.410241
vt 0.994677 0.572995
vt 0.993470 0.995696
vt -0.001943 0.997218
vt -0.000736 0.574516
vt 1.000441 0.241716
vt 1.003556 0.391794
vt 0.041067 0.391782
vt 0.036573 0.241612
vt 0.999152 0.599393
vt 0.037360 0.599505
vt 0.550990 0.981103
vt 0.567773 0.981104
vt 0.567773 0.999925
vt 0.550990 0.999925
vt 0.021707 0.280142
vt 0.026200 0.430312
vt 0.010761 0.430209
vt 0.006638 0.280023
vt 0.646573 0.493844
vt 0.396396 0.494717
vt 0.394652 -0.005230
vt 0.644829 -0.006103
vt 1.001128 0.280123
vt 1.004610 0.430319
vt 0.988690 0.430324
vt 0.985575 0.280246
vt 0.547230 0.000075
vt 0.564013 0.000075
vt 0.564013 0.019528
vt 0.547230 0.019528
vt 0.052368 0.000045
vt 0.052369 0.999955
vt 0.000046 0.999955
vt 0.000045 0.000045
vt 0.103086 0.000045
vt 0.103086 0.999946
vt 0.052460 0.999946
vt 0.052460 0.000045
vt 0.551478 0.017307
vt 0.441030 0.017270
vt 0.441035 0.002538
vt 0.551482 0.002574
vt 0.374505 0.515257
vt 0.615698 0.514948
vt 0.616317 0.996941
vt 0.375124 0.997251
vt 0.576233 0.013822
vt 0.465785 0.013931
vt 0.465770 -0.001296
vt 0.576218 -0.001404
vt 0.577184 0.983796
vt 0.466737 0.983904
vt 0.551153 1.002508
vt 0.440706 1.002471
vt 0.440711 0.987245
vt 0.551158 0.987281
vt 0.577198 0.998529
vt 0.466751 0.998637
vt 0.999913 0.123346
vt 0.999913 0.758737
vt 0.964002 0.758737
vt 0.964002 0.123346
vt 0.373840 -0.002650
vt 0.615033 -0.002959
vt 0.615079 0.032954
vt 0.373886 0.033264
vt 0.999913 0.000087
vt 0.999913 0.635479
vt 0.964002 0.635479
vt 0.964002 0.000087
vt 0.999913 0.000087
vt 0.964002 0.000087
vt 0.999972 0.000028
vt 0.999973 0.075786
vt 0.988692 0.075786
vt 0.988692 0.000028
vt 0.999913 0.758737
vt 0.964002 0.758737
vt 0.999914 0.245479
vt 0.968010 0.245468
vt 0.968046 0.138872
vt 0.999950 0.138883
vt 0.968058 0.106968
vt 0.031990 0.138549
vt 0.032002 0.106645
vt 0.000086 0.138538
vt 0.031954 0.245145
vt 0.000050 0.245134
vt 0.966905 0.139435
vt 0.033096 0.139436
vt 0.033095 0.106390
vt 0.966905 0.106390
vt 0.034968 0.140882
vt 0.034968 0.246795
vt 0.000099 0.246795
vt 0.000099 0.140882
vt 0.965032 0.140881
vt 0.034968 0.106012
vt 0.965032 0.106013
vt 0.464199 0.985413
vt 0.464134 0.015858
vt 0.550026 0.015944
vt 0.550065 0.985408
vt 0.999969 0.084070
vt 0.986093 0.088625
vt 0.966094 0.022851
vt 0.976338 0.012071
vt 1.002149 0.637834
vt 0.984286 0.637922
vt 0.965032 0.246795
vt 0.999901 0.140881
vt 0.999901 0.246795
vt 0.966905 0.000050
vt 0.033095 0.000050
vt 0.000050 0.106390
vt 0.000050 0.000050
vt 0.999950 0.000050
vt 0.999950 0.106390
vt 0.966916 0.139427
vt 0.966916 0.033084
vt 0.999963 0.033084
vt 0.999963 0.139427
vt 0.550032 0.001008
vt 0.566787 0.000966
vt 0.566823 0.015953
vt 0.566870 0.985405
vt 0.566810 1.000902
vt 0.550072 1.000837
vt 0.464128 0.001023
vt 0.033084 0.033084
vt 0.033084 0.139427
vt 0.000037 0.139427
vt 0.000037 0.033084
vt 0.968571 0.552917
vt 0.034762 0.553494
vt 0.034697 0.447154
vt 0.968506 0.446577
vt 0.968094 0.000372
vt 0.032038 0.000050
vt 0.034968 0.000099
vt 0.965032 0.000099
vt 0.022493 0.638035
vt 0.005085 0.638267
vt 0.018899 0.090024
vt 0.000031 0.084413
vt 0.027132 0.005590
vt 0.036186 0.019391
vt 0.464182 1.000740
vt 0.033084 0.000037
vt 0.966916 0.000038
vt 0.966905 0.245775
vt 0.033096 0.245776
vt 0.000075 0.000077
vt 0.000075 0.019528
vt 0.648317 0.993791
vt 0.398140 0.994663
vt 0.003836 0.981100
vt 0.003836 0.999924
vt 0.482045 0.000087
vt 0.482045 0.123346
vt 0.000087 0.123346
vt 0.000087 0.000087
vt 0.482045 0.758738
vt 0.000088 0.758738
vt 0.000059 0.347467
vt 0.000059 0.056503
vt 0.014791 0.056503
vt 0.014791 0.347467
vt 0.000059 0.000059
vt 0.014791 0.000059
vt 0.000000 0.000000
vt 0.000000 0.000000
vt 0.000000 0.000000
vt 0.000000 0.000000
vt 0.000000 0.000000
vt 0.000000 0.000000
vt 0.000000 0.000000
vt 0.000000 0.000000
vt 0.000000 0.000000
vt 0.000000 0.000000
vt 0.000000 0.000000
vt 0.000000 0.000000
vt 0.000000 0.000000
vt 0.000000 0.000000
vt 0.000000 0.000000
vt 0.000000 0.000000
vt 0.000000 0.000000
vt 0.000000 0.000000
vt 0.000000 0.000000
vt 0.000000 0.000000
vt 0.000000 0.000000
vt 0.000000 0.000000
vt 0.000000 0.000000
vt 0.000000 0.000000
vt 0.482045 0.635479
vt 0.482045 0.758738
vt 0.000087 0.758738
vt 0.000087 0.635479
vt 0.984715 0.056503
vt 0.984716 0.000060
vt 0.999941 0.000060
vt 0.999941 0.056503
vt 0.984715 0.347465
vt 0.999941 0.347465
vt 0.482045 0.000087
vt 0.000087 0.000087
vn 0.0000 1.0000 0.0000
vn 1.0000 0.0000 0.0000
vn 0.0000 0.0000 -1.0000
vn 0.0000 0.0000 1.0000
vn -1.0000 -0.0000 0.0000
vn 0.0000 -1.0000 0.0000
usemtl Letrero
s off
f 37/1/1 95/2/1 96/3/1 43/4/1
usemtl Letrero_titulo.jpg
f 18/5/2 11/6/2 26/7/2 30/8/2
f 26/7/2 11/6/2 67/9/2 64/10/2
usemtl Letrero_textura-de-madera-oscura_1048-4871.jpg.jpg
f 96/11/1 28/12/1 7/13/1 88/14/1
f 30/15/2 26/16/2 6/17/2 14/18/2
f 93/19/3 85/20/3 4/21/3 24/22/3
f 13/23/2 5/24/2 11/25/2 18/26/2
f 87/27/1 8/28/1 12/29/1 95/30/1
f 21/31/2 13/32/2 18/33/2 20/34/2
f 31/35/2 30/36/2 14/37/2 22/38/2
f 25/39/2 31/40/2 22/41/2 2/42/2
f 86/43/4 92/44/4 23/45/4 3/46/4
f 10/47/5 19/48/5 24/49/5 4/50/5
f 27/51/5 32/52/5 19/48/5 10/47/5
f 1/53/2 21/54/2 20/55/2 9/56/2
f 3/57/5 23/58/5 32/52/5 27/51/5
f 9/56/2 20/55/2 31/40/2 25/39/2
f 95/30/1 12/29/1 28/12/1 96/11/1
f 13/59/3 21/60/3 42/61/3 39/62/3
f 2/63/4 22/64/4 41/65/4 34/66/4
f 22/67/4 14/68/4 40/69/4 41/70/4
f 5/71/3 13/59/3 39/62/3 35/72/3
f 21/73/3 1/74/3 33/75/3 42/76/3
f 14/68/4 6/77/4 36/78/4 40/69/4
f 47/79/3 48/80/3 52/81/3 51/82/3
f 51/83/2 52/81/2 50/84/2 49/85/2
f 49/86/4 50/84/4 46/87/4 45/88/4
f 52/81/1 48/80/1 46/87/1 50/84/1
f 77/89/2 76/90/2 72/91/2 71/92/2
f 65/93/4 62/94/4 61/95/4 66/96/4
f 57/97/2 65/93/2 66/98/2 58/99/2
f 37/100/5 43/101/5 78/102/5 79/103/5
f 5/104/3 35/105/3 75/106/3 74/107/3
f 11/25/2 5/24/2 74/108/2 67/109/2
f 60/110/3 57/97/3 58/111/3 59/112/3
f 69/113/6 71/92/6 72/91/6 70/114/6
f 76/115/4 83/116/4 70/114/4 72/91/4
f 82/117/3 77/118/3 71/92/3 69/113/3
f 53/119/3 55/120/3 80/121/3 81/122/3
f 68/123/1 63/124/1 64/125/1 67/126/1 74/127/1 75/128/1 79/103/1 78/102/1
f 43/101/5 36/129/5 68/123/5 78/102/5
f 56/130/4 54/131/4 84/132/4 73/133/4
f 80/134/6 73/135/6 84/136/6 81/137/6
f 47/138/6 51/83/6 49/85/6 45/139/6
f 61/140/6 59/141/6 58/99/6 66/98/6
f 6/17/2 26/16/2 64/142/2 63/143/2
f 36/144/4 6/145/4 63/146/4 68/147/4
f 35/148/5 37/100/5 79/103/5 75/128/5
f 55/120/2 56/130/2 73/149/2 80/150/2
f 76/90/1 77/89/1 82/151/1 83/152/1
f 55/120/1 53/119/1 54/131/1 56/130/1
f 60/110/1 62/94/1 65/93/1 57/97/1
f 34/66/4 41/65/4 92/44/4 86/43/4
f 35/153/1 87/27/1 95/30/1 37/154/1
f 42/155/3 33/156/3 85/20/3 93/19/3
f 43/157/1 96/11/1 88/14/1 36/158/1
usemtl Letrero_ladrillo.jpg.001
f 87/159/3 90/160/3 16/161/3 8/162/3
f 90/160/3 93/163/3 24/164/3 16/161/3
f 23/165/5 15/166/5 29/167/5 32/168/5
f 15/166/5 7/169/5 28/170/5 29/167/5
usemtl Letrero_NONE
f 94/171/6 86/172/6 3/173/6 27/174/6
f 85/175/6 89/176/6 10/177/6 4/178/6
f 9/179/6 25/180/6 44/181/6 38/182/6
f 1/183/6 9/179/6 38/182/6 33/184/6
f 25/180/6 2/185/6 34/186/6 44/181/6
f 45/187/5 46/188/5 48/189/5 47/190/5
f 62/191/5 60/192/5 59/193/5 61/194/5
f 33/184/6 38/182/6 89/176/6 85/175/6
f 44/181/6 34/186/6 86/172/6 94/171/6
usemtl Paredes
f 91/195/4 88/196/4 7/197/4 15/198/4
f 17/199/5 12/200/5 8/201/5 16/202/5
f 29/167/5 28/170/5 12/200/5 17/199/5
f 32/168/5 29/167/5 17/199/5 19/203/5
f 19/203/5 17/199/5 16/202/5 24/204/5
f 92/205/4 91/195/4 15/198/4 23/206/4
f 39/62/3 42/61/3 93/163/3 90/160/3
f 41/70/4 40/69/4 91/195/4 92/205/4
f 35/72/3 39/62/3 90/160/3 87/159/3
f 40/69/4 36/78/4 88/196/4 91/195/4
